<svg id="SvgjsSvg1006" width="819.546875" height="810.765625" xmlns="http://www.w3.org/2000/svg" version="1.1" xmlns:xlink="http://www.w3.org/1999/xlink" xmlns:svgjs="http://svgjs.com/svgjs"><defs id="SvgjsDefs1007"></defs><g id="SvgjsG1008" transform="translate(309,249)"><path id="SvgjsPath1009" d="M 0 4Q 0 0 4 0L 130 0Q 134 0 134 4L 134 106Q 134 110 130 110L 4 110Q 0 110 0 106Z" stroke="rgba(50,50,50,1)" stroke-width="2" fill-opacity="1" fill="#ffffff"></path><path id="SvgjsPath1010" d="M 0 30L 134 30" stroke="rgba(50,50,50,1)" stroke-width="2" fill="none"></path><path id="SvgjsPath1011" d="M 0 0L 134 0L 134 110L 0 110Z" stroke="none" fill="none"></path><g id="SvgjsG1012"><text id="SvgjsText1013" font-family="微软雅黑" text-anchor="middle" font-size="13px" width="114px" fill="#323232" font-weight="700" align="middle" lineHeight="125%" anchor="middle" family="微软雅黑" size="13px" weight="700" font-style="" opacity="1" y="5.375" transform="rotate(0)"><tspan id="SvgjsTspan1014" dy="16" x="67"><tspan id="SvgjsTspan1015" style="text-decoration:;">paper</tspan></tspan></text></g><g id="SvgjsG1016"><text id="SvgjsText1017" font-family="微软雅黑" text-anchor="start" font-size="13px" width="114px" fill="#323232" font-weight="400" align="middle" lineHeight="125%" anchor="start" family="微软雅黑" size="13px" weight="400" font-style="" opacity="1" y="28.375" transform="rotate(0)"><tspan id="SvgjsTspan1018" dy="16" x="10"><tspan id="SvgjsTspan1019" style="text-decoration:;">paperId</tspan></tspan><tspan id="SvgjsTspan1020" dy="16" x="10"><tspan id="SvgjsTspan1021" style="text-decoration:;">titlepdflink</tspan></tspan><tspan id="SvgjsTspan1022" dy="16" x="10"><tspan id="SvgjsTspan1023" style="text-decoration:;">abs</tspan></tspan><tspan id="SvgjsTspan1024" dy="16" x="10"><tspan id="SvgjsTspan1025" style="text-decoration:;">date</tspan></tspan></text></g></g><g id="SvgjsG1026" transform="translate(324,25)"><path id="SvgjsPath1027" d="M 0 4Q 0 0 4 0L 100 0Q 104 0 104 4L 104 90Q 104 94 100 94L 4 94Q 0 94 0 90Z" stroke="rgba(50,50,50,1)" stroke-width="2" fill-opacity="1" fill="#ffffff"></path><path id="SvgjsPath1028" d="M 0 30L 104 30" stroke="rgba(50,50,50,1)" stroke-width="2" fill="none"></path><path id="SvgjsPath1029" d="M 0 0L 104 0L 104 94L 0 94Z" stroke="none" fill="none"></path><g id="SvgjsG1030"><text id="SvgjsText1031" font-family="微软雅黑" text-anchor="middle" font-size="13px" width="84px" fill="#323232" font-weight="700" align="middle" lineHeight="125%" anchor="middle" family="微软雅黑" size="13px" weight="700" font-style="" opacity="1" y="5.375" transform="rotate(0)"><tspan id="SvgjsTspan1032" dy="16" x="52"><tspan id="SvgjsTspan1033" style="text-decoration:;">code </tspan></tspan></text></g><g id="SvgjsG1034"><text id="SvgjsText1035" font-family="微软雅黑" text-anchor="start" font-size="13px" width="84px" fill="#323232" font-weight="400" align="middle" lineHeight="125%" anchor="start" family="微软雅黑" size="13px" weight="400" font-style="" opacity="1" y="28.375" transform="rotate(0)"><tspan id="SvgjsTspan1036" dy="16" x="10"><tspan id="SvgjsTspan1037" style="text-decoration:;">codeId</tspan></tspan><tspan id="SvgjsTspan1038" dy="16" x="10"><tspan id="SvgjsTspan1039" style="text-decoration:;">link</tspan></tspan><tspan id="SvgjsTspan1040" dy="16" x="10"><tspan id="SvgjsTspan1041" style="text-decoration:;">star</tspan></tspan><tspan id="SvgjsTspan1042" dy="16" x="10"><tspan id="SvgjsTspan1043" style="text-decoration:;">framework</tspan></tspan></text></g></g><g id="SvgjsG1044" transform="translate(318,491)"><path id="SvgjsPath1045" d="M 0 4Q 0 0 4 0L 112 0Q 116 0 116 4L 116 58Q 116 62 112 62L 4 62Q 0 62 0 58Z" stroke="rgba(50,50,50,1)" stroke-width="2" fill-opacity="1" fill="#ffffff"></path><path id="SvgjsPath1046" d="M 0 30L 116 30" stroke="rgba(50,50,50,1)" stroke-width="2" fill="none"></path><path id="SvgjsPath1047" d="M 0 0L 116 0L 116 62L 0 62Z" stroke="none" fill="none"></path><g id="SvgjsG1048"><text id="SvgjsText1049" font-family="微软雅黑" text-anchor="middle" font-size="13px" width="96px" fill="#323232" font-weight="700" align="middle" lineHeight="125%" anchor="middle" family="微软雅黑" size="13px" weight="700" font-style="" opacity="1" y="5.375" transform="rotate(0)"><tspan id="SvgjsTspan1050" dy="16" x="58"><tspan id="SvgjsTspan1051" style="text-decoration:;">benchmark </tspan></tspan></text></g><g id="SvgjsG1052"><text id="SvgjsText1053" font-family="微软雅黑" text-anchor="start" font-size="13px" width="96px" fill="#323232" font-weight="400" align="middle" lineHeight="125%" anchor="start" family="微软雅黑" size="13px" weight="400" font-style="" opacity="1" y="28.375" transform="rotate(0)"><tspan id="SvgjsTspan1054" dy="16" x="10"><tspan id="SvgjsTspan1055" style="text-decoration:;">benchId</tspan></tspan><tspan id="SvgjsTspan1056" dy="16" x="10"><tspan id="SvgjsTspan1057" style="text-decoration:;">metric</tspan></tspan></text></g></g><g id="SvgjsG1058" transform="translate(321,675.7777777777778)"><path id="SvgjsPath1059" d="M 0 4Q 0 0 4 0L 106 0Q 110 0 110 4L 110 106Q 110 110 106 110L 4 110Q 0 110 0 106Z" stroke="rgba(50,50,50,1)" stroke-width="2" fill-opacity="1" fill="#ffffff"></path><path id="SvgjsPath1060" d="M 0 30L 110 30" stroke="rgba(50,50,50,1)" stroke-width="2" fill="none"></path><path id="SvgjsPath1061" d="M 0 0L 110 0L 110 110L 0 110Z" stroke="none" fill="none"></path><g id="SvgjsG1062"><text id="SvgjsText1063" font-family="微软雅黑" text-anchor="middle" font-size="13px" width="90px" fill="#323232" font-weight="700" align="middle" lineHeight="125%" anchor="middle" family="微软雅黑" size="13px" weight="700" font-style="" opacity="1" y="5.375" transform="rotate(0)"><tspan id="SvgjsTspan1064" dy="16" x="55"><tspan id="SvgjsTspan1065" style="text-decoration:;">dataset</tspan></tspan></text></g><g id="SvgjsG1066"><text id="SvgjsText1067" font-family="微软雅黑" text-anchor="start" font-size="13px" width="90px" fill="#323232" font-weight="400" align="middle" lineHeight="125%" anchor="start" family="微软雅黑" size="13px" weight="400" font-style="" opacity="1" y="28.375" transform="rotate(0)"><tspan id="SvgjsTspan1068" dy="16" x="10"><tspan id="SvgjsTspan1069" style="text-decoration:;">datasetId</tspan></tspan><tspan id="SvgjsTspan1070" dy="16" x="10"><tspan id="SvgjsTspan1071" style="text-decoration:;">name</tspan></tspan><tspan id="SvgjsTspan1072" dy="16" x="10"><tspan id="SvgjsTspan1073" style="text-decoration:;">description</tspan></tspan><tspan id="SvgjsTspan1074" dy="16" x="10"><tspan id="SvgjsTspan1075" style="text-decoration:;">link</tspan></tspan><tspan id="SvgjsTspan1076" dy="16" x="10"><tspan id="SvgjsTspan1077" style="text-decoration:;">date</tspan></tspan></text></g></g><g id="SvgjsG1078" transform="translate(678.5555555555554,483)"><path id="SvgjsPath1079" d="M 0 4Q 0 0 4 0L 112 0Q 116 0 116 4L 116 74Q 116 78 112 78L 4 78Q 0 78 0 74Z" stroke="rgba(50,50,50,1)" stroke-width="2" fill-opacity="1" fill="#ffffff"></path><path id="SvgjsPath1080" d="M 0 30L 116 30" stroke="rgba(50,50,50,1)" stroke-width="2" fill="none"></path><path id="SvgjsPath1081" d="M 0 0L 116 0L 116 78L 0 78Z" stroke="none" fill="none"></path><g id="SvgjsG1082"><text id="SvgjsText1083" font-family="微软雅黑" text-anchor="middle" font-size="13px" width="96px" fill="#323232" font-weight="700" align="middle" lineHeight="125%" anchor="middle" family="微软雅黑" size="13px" weight="700" font-style="" opacity="1" y="5.375" transform="rotate(0)"><tspan id="SvgjsTspan1084" dy="16" x="58"><tspan id="SvgjsTspan1085" style="text-decoration:;">task</tspan></tspan></text></g><g id="SvgjsG1086"><text id="SvgjsText1087" font-family="微软雅黑" text-anchor="start" font-size="13px" width="96px" fill="#323232" font-weight="400" align="middle" lineHeight="125%" anchor="start" family="微软雅黑" size="13px" weight="400" font-style="" opacity="1" y="28.375" transform="rotate(0)"><tspan id="SvgjsTspan1088" dy="16" x="10"><tspan id="SvgjsTspan1089" style="text-decoration:;">taskId</tspan></tspan><tspan id="SvgjsTspan1090" dy="16" x="10"><tspan id="SvgjsTspan1091" style="text-decoration:;">name</tspan></tspan><tspan id="SvgjsTspan1092" dy="16" x="10"><tspan id="SvgjsTspan1093" style="text-decoration:;">description</tspan></tspan></text></g></g><g id="SvgjsG1094" transform="translate(672,265)"><path id="SvgjsPath1095" d="M 0 4Q 0 0 4 0L 86.22222222222217 0Q 90.22222222222217 0 90.22222222222217 4L 90.22222222222217 74Q 90.22222222222217 78 86.22222222222217 78L 4 78Q 0 78 0 74Z" stroke="rgba(50,50,50,1)" stroke-width="2" fill-opacity="1" fill="#ffffff"></path><path id="SvgjsPath1096" d="M 0 30L 90.22222222222217 30" stroke="rgba(50,50,50,1)" stroke-width="2" fill="none"></path><path id="SvgjsPath1097" d="M 0 0L 90.22222222222217 0L 90.22222222222217 78L 0 78Z" stroke="none" fill="none"></path><g id="SvgjsG1098"><text id="SvgjsText1099" font-family="微软雅黑" text-anchor="middle" font-size="13px" width="71px" fill="#323232" font-weight="700" align="middle" lineHeight="125%" anchor="middle" family="微软雅黑" size="13px" weight="700" font-style="" opacity="1" y="5.375" transform="rotate(0)"><tspan id="SvgjsTspan1100" dy="16" x="45.5"><tspan id="SvgjsTspan1101" style="text-decoration:;">method</tspan></tspan></text></g><g id="SvgjsG1102"><text id="SvgjsText1103" font-family="微软雅黑" text-anchor="start" font-size="13px" width="71px" fill="#323232" font-weight="400" align="middle" lineHeight="125%" anchor="start" family="微软雅黑" size="13px" weight="400" font-style="" opacity="1" y="28.375" transform="rotate(0)"><tspan id="SvgjsTspan1104" dy="16" x="10"><tspan id="SvgjsTspan1105" style="text-decoration:;">methodId</tspan></tspan><tspan id="SvgjsTspan1106" dy="16" x="10"><tspan id="SvgjsTspan1107" style="text-decoration:;">name</tspan></tspan><tspan id="SvgjsTspan1108" dy="16" x="10"><tspan id="SvgjsTspan1109" style="text-decoration:;">description</tspan></tspan></text></g></g><g id="SvgjsG1110" transform="translate(25,265)"><path id="SvgjsPath1111" d="M 0 4Q 0 0 4 0L 93 0Q 97 0 97 4L 97 74Q 97 78 93 78L 4 78Q 0 78 0 74Z" stroke="rgba(50,50,50,1)" stroke-width="2" fill-opacity="1" fill="#ffffff"></path><path id="SvgjsPath1112" d="M 0 30L 97 30" stroke="rgba(50,50,50,1)" stroke-width="2" fill="none"></path><path id="SvgjsPath1113" d="M 0 0L 97 0L 97 78L 0 78Z" stroke="none" fill="none"></path><g id="SvgjsG1114"><text id="SvgjsText1115" font-family="微软雅黑" text-anchor="middle" font-size="13px" width="77px" fill="#323232" font-weight="700" align="middle" lineHeight="125%" anchor="middle" family="微软雅黑" size="13px" weight="700" font-style="" opacity="1" y="5.375" transform="rotate(0)"><tspan id="SvgjsTspan1116" dy="16" x="48.5"><tspan id="SvgjsTspan1117" style="text-decoration:;">author</tspan></tspan></text></g><g id="SvgjsG1118"><text id="SvgjsText1119" font-family="微软雅黑" text-anchor="start" font-size="13px" width="77px" fill="#323232" font-weight="400" align="middle" lineHeight="125%" anchor="start" family="微软雅黑" size="13px" weight="400" font-style="" opacity="1" y="28.375" transform="rotate(0)"><tspan id="SvgjsTspan1120" dy="16" x="10"><tspan id="SvgjsTspan1121" style="text-decoration:;">authorId </tspan></tspan><tspan id="SvgjsTspan1122" dy="16" x="10"><tspan id="SvgjsTspan1123" style="text-decoration:;">name</tspan></tspan><tspan id="SvgjsTspan1124" dy="16" x="10"><tspan id="SvgjsTspan1125" style="text-decoration:;">inst</tspan></tspan></text></g></g><g id="SvgjsG1126" transform="translate(314,157)"><path id="SvgjsPath1127" d="M 0 26L 62 0L 124 26L 62 52L 0 26Z" stroke="rgba(50,50,50,1)" stroke-width="2" fill-opacity="1" fill="#ffffff"></path><g id="SvgjsG1128"><text id="SvgjsText1129" font-family="微软雅黑" text-anchor="middle" font-size="13px" width="104px" fill="#323232" font-weight="400" align="middle" lineHeight="125%" anchor="middle" family="微软雅黑" size="13px" weight="400" font-style="" opacity="1" y="16.375" transform="rotate(0)"><tspan id="SvgjsTspan1130" dy="16" x="62"><tspan id="SvgjsTspan1131" style="text-decoration:;">code_of_paper</tspan></tspan></text></g></g><g id="SvgjsG1132"><path id="SvgjsPath1133" d="M376 249L376 229L376 229L376 209" stroke="#323232" stroke-width="2" fill="none"></path><rect id="SvgjsRect1134" width="8" height="16" x="372" y="221" fill="#ffffff"></rect><text id="SvgjsText1135" font-family="微软雅黑" text-anchor="middle" font-size="13px" width="8px" fill="#323232" font-weight="400" align="top" lineHeight="16px" anchor="middle" family="微软雅黑" size="13px" weight="400" font-style="" opacity="1" y="219.375" transform="rotate(0)"><tspan id="SvgjsTspan1136" dy="16" x="376"><tspan id="SvgjsTspan1137" style="text-decoration:;">1</tspan></tspan></text></g><g id="SvgjsG1138"><path id="SvgjsPath1139" d="M376 157L376 138L376 138L376 119" stroke="#323232" stroke-width="2" fill="none"></path><rect id="SvgjsRect1140" width="13" height="16" x="369.5" y="130" fill="#ffffff"></rect><text id="SvgjsText1141" font-family="微软雅黑" text-anchor="middle" font-size="13px" width="13px" fill="#323232" font-weight="400" align="top" lineHeight="16px" anchor="middle" family="微软雅黑" size="13px" weight="400" font-style="" opacity="1" y="128.375" transform="rotate(0)"><tspan id="SvgjsTspan1142" dy="16" x="376"><tspan id="SvgjsTspan1143" style="text-decoration:;">M</tspan></tspan></text></g><g id="SvgjsG1144" transform="translate(303,400.5555555555556)"><path id="SvgjsPath1145" d="M 0 26L 73 0L 146 26L 73 52L 0 26Z" stroke="rgba(50,50,50,1)" stroke-width="2" fill-opacity="1" fill="#ffffff"></path><g id="SvgjsG1146"><text id="SvgjsText1147" font-family="微软雅黑" text-anchor="middle" font-size="13px" width="126px" fill="#323232" font-weight="400" align="middle" lineHeight="125%" anchor="middle" family="微软雅黑" size="13px" weight="400" font-style="" opacity="1" y="16.375" transform="rotate(0)"><tspan id="SvgjsTspan1148" dy="16" x="73"><tspan id="SvgjsTspan1149" style="text-decoration:;">PaperBench</tspan></tspan></text></g></g><g id="SvgjsG1150"><path id="SvgjsPath1151" d="M376 359L376 379.7777777777778L376 379.7777777777778L376 400.5555555555556" stroke="#323232" stroke-width="2" fill="none"></path><rect id="SvgjsRect1152" width="11" height="16" x="370.5" y="371.77777777777777" fill="#ffffff"></rect><text id="SvgjsText1153" font-family="微软雅黑" text-anchor="middle" font-size="13px" width="11px" fill="#323232" font-weight="400" align="top" lineHeight="16px" anchor="middle" family="微软雅黑" size="13px" weight="400" font-style="" opacity="1" y="370.15277777777777" transform="rotate(0)"><tspan id="SvgjsTspan1154" dy="16" x="376"><tspan id="SvgjsTspan1155" style="text-decoration:;">N</tspan></tspan></text></g><g id="SvgjsG1156"><path id="SvgjsPath1157" d="M376 452.5555555555556L376 471.7777777777778L376 471.7777777777778L376 491" stroke="#323232" stroke-width="2" fill="none"></path><rect id="SvgjsRect1158" width="13" height="16" x="369.5" y="463.77777777777777" fill="#ffffff"></rect><text id="SvgjsText1159" font-family="微软雅黑" text-anchor="middle" font-size="13px" width="13px" fill="#323232" font-weight="400" align="top" lineHeight="16px" anchor="middle" family="微软雅黑" size="13px" weight="400" font-style="" opacity="1" y="462.15277777777777" transform="rotate(0)"><tspan id="SvgjsTspan1160" dy="16" x="376"><tspan id="SvgjsTspan1161" style="text-decoration:;">M</tspan></tspan></text></g><g id="SvgjsG1162" transform="translate(158,278)"><path id="SvgjsPath1163" d="M 0 26L 55.5 0L 111 26L 55.5 52L 0 26Z" stroke="rgba(50,50,50,1)" stroke-width="2" fill-opacity="1" fill="#ffffff"></path><g id="SvgjsG1164"><text id="SvgjsText1165" font-family="微软雅黑" text-anchor="middle" font-size="13px" width="91px" fill="#323232" font-weight="400" align="middle" lineHeight="125%" anchor="middle" family="微软雅黑" size="13px" weight="400" font-style="" opacity="1" y="16.375" transform="rotate(0)"><tspan id="SvgjsTspan1166" dy="16" x="55.5"><tspan id="SvgjsTspan1167" style="text-decoration:;">PaperAuthor</tspan></tspan></text></g></g><g id="SvgjsG1168"><path id="SvgjsPath1169" d="M309 304L289 304L289 304L269 304" stroke="#323232" stroke-width="2" fill="none"></path><rect id="SvgjsRect1170" width="11" height="16" x="283.5" y="296" fill="#ffffff"></rect><text id="SvgjsText1171" font-family="微软雅黑" text-anchor="middle" font-size="13px" width="11px" fill="#323232" font-weight="400" align="top" lineHeight="16px" anchor="middle" family="微软雅黑" size="13px" weight="400" font-style="" opacity="1" y="294.375" transform="rotate(0)"><tspan id="SvgjsTspan1172" dy="16" x="289"><tspan id="SvgjsTspan1173" style="text-decoration:;">N</tspan></tspan></text></g><g id="SvgjsG1174"><path id="SvgjsPath1175" d="M158 304L140 304L140 304L122 304" stroke="#323232" stroke-width="2" fill="none"></path><rect id="SvgjsRect1176" width="13" height="16" x="133.5" y="296" fill="#ffffff"></rect><text id="SvgjsText1177" font-family="微软雅黑" text-anchor="middle" font-size="13px" width="13px" fill="#323232" font-weight="400" align="top" lineHeight="16px" anchor="middle" family="微软雅黑" size="13px" weight="400" font-style="" opacity="1" y="294.375" transform="rotate(0)"><tspan id="SvgjsTspan1178" dy="16" x="140"><tspan id="SvgjsTspan1179" style="text-decoration:;">M</tspan></tspan></text></g><g id="SvgjsG1180" transform="translate(495,276)"><path id="SvgjsPath1181" d="M 0 28L 63 0L 126 28L 63 56L 0 28Z" stroke="rgba(50,50,50,1)" stroke-width="2" fill-opacity="1" fill="#ffffff"></path><g id="SvgjsG1182"><text id="SvgjsText1183" font-family="微软雅黑" text-anchor="middle" font-size="13px" width="106px" fill="#323232" font-weight="400" align="middle" lineHeight="125%" anchor="middle" family="微软雅黑" size="13px" weight="400" font-style="" opacity="1" y="18.375" transform="rotate(0)"><tspan id="SvgjsTspan1184" dy="16" x="63"><tspan id="SvgjsTspan1185" style="text-decoration:;">PaperMethod</tspan></tspan></text></g></g><g id="SvgjsG1186"><path id="SvgjsPath1187" d="M443 304L469 304L469 304L495 304" stroke="#323232" stroke-width="2" fill="none"></path><rect id="SvgjsRect1188" width="11" height="16" x="463.5" y="296" fill="#ffffff"></rect><text id="SvgjsText1189" font-family="微软雅黑" text-anchor="middle" font-size="13px" width="11px" fill="#323232" font-weight="400" align="top" lineHeight="16px" anchor="middle" family="微软雅黑" size="13px" weight="400" font-style="" opacity="1" y="294.375" transform="rotate(0)"><tspan id="SvgjsTspan1190" dy="16" x="469"><tspan id="SvgjsTspan1191" style="text-decoration:;">N</tspan></tspan></text></g><g id="SvgjsG1192"><path id="SvgjsPath1193" d="M621 304L646.5 304L646.5 304L672 304" stroke="#323232" stroke-width="2" fill="none"></path><rect id="SvgjsRect1194" width="13" height="16" x="640" y="296" fill="#ffffff"></rect><text id="SvgjsText1195" font-family="微软雅黑" text-anchor="middle" font-size="13px" width="13px" fill="#323232" font-weight="400" align="top" lineHeight="16px" anchor="middle" family="微软雅黑" size="13px" weight="400" font-style="" opacity="1" y="294.375" transform="rotate(0)"><tspan id="SvgjsTspan1196" dy="16" x="646.5"><tspan id="SvgjsTspan1197" style="text-decoration:;">M</tspan></tspan></text></g><g id="SvgjsG1198" transform="translate(509.20987654321016,408)"><path id="SvgjsPath1199" d="M 0 0L 101.80246913580254 0L 101.80246913580254 37.1111111111112L 0 37.1111111111112Z" stroke="rgba(50,50,50,1)" stroke-width="2" fill-opacity="1" fill="#ffffff"></path><g id="SvgjsG1200"><text id="SvgjsText1201" font-family="微软雅黑" text-anchor="middle" font-size="13px" width="82px" fill="#323232" font-weight="400" align="middle" lineHeight="125%" anchor="middle" family="微软雅黑" size="13px" weight="400" font-style="" opacity="1" y="0.9305555555555998" transform="rotate(0)"><tspan id="SvgjsTspan1202" dy="16" x="51"><tspan id="SvgjsTspan1203" style="text-decoration:;">value</tspan></tspan><tspan id="SvgjsTspan1204" dy="16" x="51"><tspan id="SvgjsTspan1205" style="text-decoration:;">modelDesc</tspan></tspan></text></g></g><g id="SvgjsG1206"><path id="SvgjsPath1207" d="M449 426.5555555555556L479.1049382716051 426.5555555555556L479.1049382716051 426.5555555555556L509.20987654321016 426.5555555555556" stroke-dasharray="8,5" stroke="#323232" stroke-width="2" fill="none"></path></g><g id="SvgjsG1208" transform="translate(293,589.7777777777778)"><path id="SvgjsPath1209" d="M 0 26L 83 0L 166 26L 83 52L 0 26Z" stroke="rgba(50,50,50,1)" stroke-width="2" fill-opacity="1" fill="#ffffff"></path><g id="SvgjsG1210"><text id="SvgjsText1211" font-family="微软雅黑" text-anchor="middle" font-size="13px" width="146px" fill="#323232" font-weight="400" align="middle" lineHeight="125%" anchor="middle" family="微软雅黑" size="13px" weight="400" font-style="" opacity="1" y="16.375" transform="rotate(0)"><tspan id="SvgjsTspan1212" dy="16" x="83"><tspan id="SvgjsTspan1213" style="text-decoration:;">dataset_of_benchmark</tspan></tspan></text></g></g><g id="SvgjsG1214"><path id="SvgjsPath1215" d="M376 553L376 571.3888888888889L376 571.3888888888889L376 589.7777777777778" stroke="#323232" stroke-width="2" fill="none"></path><rect id="SvgjsRect1216" width="13" height="16" x="369.5" y="563.3888888888889" fill="#ffffff"></rect><text id="SvgjsText1217" font-family="微软雅黑" text-anchor="middle" font-size="13px" width="13px" fill="#323232" font-weight="400" align="top" lineHeight="16px" anchor="middle" family="微软雅黑" size="13px" weight="400" font-style="" opacity="1" y="561.7638888888889" transform="rotate(0)"><tspan id="SvgjsTspan1218" dy="16" x="376"><tspan id="SvgjsTspan1219" style="text-decoration:;">M</tspan></tspan></text></g><g id="SvgjsG1220"><path id="SvgjsPath1221" d="M376 641.7777777777778L376 658.7777777777778L376 658.7777777777778L376 675.7777777777778" stroke="#323232" stroke-width="2" fill="none"></path><rect id="SvgjsRect1222" width="8" height="16" x="372" y="650.7777777777778" fill="#ffffff"></rect><text id="SvgjsText1223" font-family="微软雅黑" text-anchor="middle" font-size="13px" width="8px" fill="#323232" font-weight="400" align="top" lineHeight="16px" anchor="middle" family="微软雅黑" size="13px" weight="400" font-style="" opacity="1" y="649.1527777777778" transform="rotate(0)"><tspan id="SvgjsTspan1224" dy="16" x="376"><tspan id="SvgjsTspan1225" style="text-decoration:;">1</tspan></tspan></text></g><g id="SvgjsG1226" transform="translate(483.1111111111114,496)"><path id="SvgjsPath1227" d="M 0 26L 77 0L 154 26L 77 52L 0 26Z" stroke="rgba(50,50,50,1)" stroke-width="2" fill-opacity="1" fill="#ffffff"></path><g id="SvgjsG1228"><text id="SvgjsText1229" font-family="微软雅黑" text-anchor="middle" font-size="13px" width="134px" fill="#323232" font-weight="400" align="middle" lineHeight="125%" anchor="middle" family="微软雅黑" size="13px" weight="400" font-style="" opacity="1" y="16.375" transform="rotate(0)"><tspan id="SvgjsTspan1230" dy="16" x="77"><tspan id="SvgjsTspan1231" style="text-decoration:;">task_of_benchmark</tspan></tspan></text></g></g><g id="SvgjsG1232"><path id="SvgjsPath1233" d="M434 522L458.55555555555566 522L458.55555555555566 522L483.1111111111114 522" stroke="#323232" stroke-width="2" fill="none"></path><rect id="SvgjsRect1234" width="13" height="16" x="452.0555555555557" y="514" fill="#ffffff"></rect><text id="SvgjsText1235" font-family="微软雅黑" text-anchor="middle" font-size="13px" width="13px" fill="#323232" font-weight="400" align="top" lineHeight="16px" anchor="middle" family="微软雅黑" size="13px" weight="400" font-style="" opacity="1" y="512.375" transform="rotate(0)"><tspan id="SvgjsTspan1236" dy="16" x="458.5555555555557"><tspan id="SvgjsTspan1237" style="text-decoration:;">M</tspan></tspan></text></g><g id="SvgjsG1238"><path id="SvgjsPath1239" d="M637.1111111111114 522L657.8333333333335 522L657.8333333333335 522L678.5555555555554 522" stroke="#323232" stroke-width="2" fill="none"></path><rect id="SvgjsRect1240" width="8" height="16" x="653.8333333333335" y="514" fill="#ffffff"></rect><text id="SvgjsText1241" font-family="微软雅黑" text-anchor="middle" font-size="13px" width="8px" fill="#323232" font-weight="400" align="top" lineHeight="16px" anchor="middle" family="微软雅黑" size="13px" weight="400" font-style="" opacity="1" y="512.375" transform="rotate(0)"><tspan id="SvgjsTspan1242" dy="16" x="657.8333333333335"><tspan id="SvgjsTspan1243" style="text-decoration:;">1</tspan></tspan></text></g><g id="SvgjsG1244"><path id="SvgjsPath1245" d="M213.5 330L213.5 354.5L214 354.5L214 379" stroke-dasharray="8,5" stroke="#323232" stroke-width="2" fill="none"></path></g><g id="SvgjsG1246" transform="translate(175,379)"><path id="SvgjsPath1247" d="M 0 0L 78 0L 78 37L 0 37Z" stroke="rgba(50,50,50,1)" stroke-width="2" fill-opacity="1" fill="#ffffff"></path><g id="SvgjsG1248"><text id="SvgjsText1249" font-family="微软雅黑" text-anchor="middle" font-size="13px" width="58px" fill="#323232" font-weight="400" align="middle" lineHeight="125%" anchor="middle" family="微软雅黑" size="13px" weight="400" font-style="" opacity="1" y="0.875" transform="rotate(0)"><tspan id="SvgjsTspan1250" dy="16" x="39"><tspan id="SvgjsTspan1251" style="text-decoration:;">ord</tspan></tspan><tspan id="SvgjsTspan1252" dy="16" x="39"><tspan id="SvgjsTspan1253" style="text-decoration:;">iscorr</tspan></tspan></text></g></g></svg>