<svg id="SvgjsSvg1970" width="819.546875" height="804.765625" xmlns="http://www.w3.org/2000/svg" version="1.1" xmlns:xlink="http://www.w3.org/1999/xlink" xmlns:svgjs="http://svgjs.com/svgjs"><defs id="SvgjsDefs1971"></defs><g id="SvgjsG1972" transform="translate(309,249)"><path id="SvgjsPath1973" d="M 0 4Q 0 0 4 0L 130 0Q 134 0 134 4L 134 106Q 134 110 130 110L 4 110Q 0 110 0 106Z" stroke="rgba(50,50,50,1)" stroke-width="2" fill-opacity="1" fill="#ffffff"></path><path id="SvgjsPath1974" d="M 0 30L 134 30" stroke="rgba(50,50,50,1)" stroke-width="2" fill="none"></path><path id="SvgjsPath1975" d="M 0 0L 134 0L 134 110L 0 110Z" stroke="none" fill="none"></path><g id="SvgjsG1976"><text id="SvgjsText1977" font-family="微软雅黑" text-anchor="middle" font-size="13px" width="114px" fill="#323232" font-weight="700" align="middle" lineHeight="125%" anchor="middle" family="微软雅黑" size="13px" weight="700" font-style="" opacity="1" y="5.375" transform="rotate(0)"><tspan id="SvgjsTspan1978" dy="16" x="67"><tspan id="SvgjsTspan1979" style="text-decoration:;">paper</tspan></tspan></text></g><g id="SvgjsG1980"><text id="SvgjsText1981" font-family="微软雅黑" text-anchor="start" font-size="13px" width="114px" fill="#323232" font-weight="400" align="middle" lineHeight="125%" anchor="start" family="微软雅黑" size="13px" weight="400" font-style="" opacity="1" y="28.375" transform="rotate(0)"><tspan id="SvgjsTspan1982" dy="16" x="10"><tspan id="SvgjsTspan1983" style="text-decoration:;">paperId</tspan></tspan><tspan id="SvgjsTspan1984" dy="16" x="10"><tspan id="SvgjsTspan1985" style="text-decoration:;">titlepdflink</tspan></tspan><tspan id="SvgjsTspan1986" dy="16" x="10"><tspan id="SvgjsTspan1987" style="text-decoration:;">abstractlink</tspan></tspan><tspan id="SvgjsTspan1988" dy="16" x="10"><tspan id="SvgjsTspan1989" style="text-decoration:;">date</tspan></tspan></text></g></g><g id="SvgjsG1990" transform="translate(324,25)"><path id="SvgjsPath1991" d="M 0 4Q 0 0 4 0L 100 0Q 104 0 104 4L 104 90Q 104 94 100 94L 4 94Q 0 94 0 90Z" stroke="rgba(50,50,50,1)" stroke-width="2" fill-opacity="1" fill="#ffffff"></path><path id="SvgjsPath1992" d="M 0 30L 104 30" stroke="rgba(50,50,50,1)" stroke-width="2" fill="none"></path><path id="SvgjsPath1993" d="M 0 0L 104 0L 104 94L 0 94Z" stroke="none" fill="none"></path><g id="SvgjsG1994"><text id="SvgjsText1995" font-family="微软雅黑" text-anchor="middle" font-size="13px" width="84px" fill="#323232" font-weight="700" align="middle" lineHeight="125%" anchor="middle" family="微软雅黑" size="13px" weight="700" font-style="" opacity="1" y="5.375" transform="rotate(0)"><tspan id="SvgjsTspan1996" dy="16" x="52"><tspan id="SvgjsTspan1997" style="text-decoration:;">code </tspan></tspan></text></g><g id="SvgjsG1998"><text id="SvgjsText1999" font-family="微软雅黑" text-anchor="start" font-size="13px" width="84px" fill="#323232" font-weight="400" align="middle" lineHeight="125%" anchor="start" family="微软雅黑" size="13px" weight="400" font-style="" opacity="1" y="28.375" transform="rotate(0)"><tspan id="SvgjsTspan2000" dy="16" x="10"><tspan id="SvgjsTspan2001" style="text-decoration:;">codeId</tspan></tspan><tspan id="SvgjsTspan2002" dy="16" x="10"><tspan id="SvgjsTspan2003" style="text-decoration:;">link</tspan></tspan><tspan id="SvgjsTspan2004" dy="16" x="10"><tspan id="SvgjsTspan2005" style="text-decoration:;">star</tspan></tspan><tspan id="SvgjsTspan2006" dy="16" x="10"><tspan id="SvgjsTspan2007" style="text-decoration:;">framework</tspan></tspan></text></g></g><g id="SvgjsG2008" transform="translate(318,479)"><path id="SvgjsPath2009" d="M 0 4Q 0 0 4 0L 112 0Q 116 0 116 4L 116 74Q 116 78 112 78L 4 78Q 0 78 0 74Z" stroke="rgba(50,50,50,1)" stroke-width="2" fill-opacity="1" fill="#ffffff"></path><path id="SvgjsPath2010" d="M 0 30L 116 30" stroke="rgba(50,50,50,1)" stroke-width="2" fill="none"></path><path id="SvgjsPath2011" d="M 0 0L 116 0L 116 78L 0 78Z" stroke="none" fill="none"></path><g id="SvgjsG2012"><text id="SvgjsText2013" font-family="微软雅黑" text-anchor="middle" font-size="13px" width="96px" fill="#323232" font-weight="700" align="middle" lineHeight="125%" anchor="middle" family="微软雅黑" size="13px" weight="700" font-style="" opacity="1" y="5.375" transform="rotate(0)"><tspan id="SvgjsTspan2014" dy="16" x="58"><tspan id="SvgjsTspan2015" style="text-decoration:;">benchmark </tspan></tspan></text></g><g id="SvgjsG2016"><text id="SvgjsText2017" font-family="微软雅黑" text-anchor="start" font-size="13px" width="96px" fill="#323232" font-weight="400" align="middle" lineHeight="125%" anchor="start" family="微软雅黑" size="13px" weight="400" font-style="" opacity="1" y="28.375" transform="rotate(0)"><tspan id="SvgjsTspan2018" dy="16" x="10"><tspan id="SvgjsTspan2019" style="text-decoration:;">benchId</tspan></tspan><tspan id="SvgjsTspan2020" dy="16" x="10"><tspan id="SvgjsTspan2021" style="text-decoration:;">metric</tspan></tspan><tspan id="SvgjsTspan2022" dy="16" x="10"><tspan id="SvgjsTspan2023" style="text-decoration:;">condition</tspan></tspan></text></g></g><g id="SvgjsG2024" transform="translate(321,685.7777777777778)"><path id="SvgjsPath2025" d="M 0 4Q 0 0 4 0L 106 0Q 110 0 110 4L 110 90Q 110 94 106 94L 4 94Q 0 94 0 90Z" stroke="rgba(50,50,50,1)" stroke-width="2" fill-opacity="1" fill="#ffffff"></path><path id="SvgjsPath2026" d="M 0 30L 110 30" stroke="rgba(50,50,50,1)" stroke-width="2" fill="none"></path><path id="SvgjsPath2027" d="M 0 0L 110 0L 110 94L 0 94Z" stroke="none" fill="none"></path><g id="SvgjsG2028"><text id="SvgjsText2029" font-family="微软雅黑" text-anchor="middle" font-size="13px" width="90px" fill="#323232" font-weight="700" align="middle" lineHeight="125%" anchor="middle" family="微软雅黑" size="13px" weight="700" font-style="" opacity="1" y="5.375" transform="rotate(0)"><tspan id="SvgjsTspan2030" dy="16" x="55"><tspan id="SvgjsTspan2031" style="text-decoration:;">dataset</tspan></tspan></text></g><g id="SvgjsG2032"><text id="SvgjsText2033" font-family="微软雅黑" text-anchor="start" font-size="13px" width="90px" fill="#323232" font-weight="400" align="middle" lineHeight="125%" anchor="start" family="微软雅黑" size="13px" weight="400" font-style="" opacity="1" y="28.375" transform="rotate(0)"><tspan id="SvgjsTspan2034" dy="16" x="10"><tspan id="SvgjsTspan2035" style="text-decoration:;">datasetId</tspan></tspan><tspan id="SvgjsTspan2036" dy="16" x="10"><tspan id="SvgjsTspan2037" style="text-decoration:;">description</tspan></tspan><tspan id="SvgjsTspan2038" dy="16" x="10"><tspan id="SvgjsTspan2039" style="text-decoration:;">link</tspan></tspan><tspan id="SvgjsTspan2040" dy="16" x="10"><tspan id="SvgjsTspan2041" style="text-decoration:;">date</tspan></tspan></text></g></g><g id="SvgjsG2042" transform="translate(678.5555555555554,487)"><path id="SvgjsPath2043" d="M 0 4Q 0 0 4 0L 112 0Q 116 0 116 4L 116 58Q 116 62 112 62L 4 62Q 0 62 0 58Z" stroke="rgba(50,50,50,1)" stroke-width="2" fill-opacity="1" fill="#ffffff"></path><path id="SvgjsPath2044" d="M 0 30L 116 30" stroke="rgba(50,50,50,1)" stroke-width="2" fill="none"></path><path id="SvgjsPath2045" d="M 0 0L 116 0L 116 62L 0 62Z" stroke="none" fill="none"></path><g id="SvgjsG2046"><text id="SvgjsText2047" font-family="微软雅黑" text-anchor="middle" font-size="13px" width="96px" fill="#323232" font-weight="700" align="middle" lineHeight="125%" anchor="middle" family="微软雅黑" size="13px" weight="700" font-style="" opacity="1" y="5.375" transform="rotate(0)"><tspan id="SvgjsTspan2048" dy="16" x="58"><tspan id="SvgjsTspan2049" style="text-decoration:;">task</tspan></tspan></text></g><g id="SvgjsG2050"><text id="SvgjsText2051" font-family="微软雅黑" text-anchor="start" font-size="13px" width="96px" fill="#323232" font-weight="400" align="middle" lineHeight="125%" anchor="start" family="微软雅黑" size="13px" weight="400" font-style="" opacity="1" y="28.375" transform="rotate(0)"><tspan id="SvgjsTspan2052" dy="16" x="10"><tspan id="SvgjsTspan2053" style="text-decoration:;">taskId</tspan></tspan><tspan id="SvgjsTspan2054" dy="16" x="10"><tspan id="SvgjsTspan2055" style="text-decoration:;">description</tspan></tspan></text></g></g><g id="SvgjsG2056" transform="translate(672,265)"><path id="SvgjsPath2057" d="M 0 4Q 0 0 4 0L 86.22222222222217 0Q 90.22222222222217 0 90.22222222222217 4L 90.22222222222217 74Q 90.22222222222217 78 86.22222222222217 78L 4 78Q 0 78 0 74Z" stroke="rgba(50,50,50,1)" stroke-width="2" fill-opacity="1" fill="#ffffff"></path><path id="SvgjsPath2058" d="M 0 30L 90.22222222222217 30" stroke="rgba(50,50,50,1)" stroke-width="2" fill="none"></path><path id="SvgjsPath2059" d="M 0 0L 90.22222222222217 0L 90.22222222222217 78L 0 78Z" stroke="none" fill="none"></path><g id="SvgjsG2060"><text id="SvgjsText2061" font-family="微软雅黑" text-anchor="middle" font-size="13px" width="71px" fill="#323232" font-weight="700" align="middle" lineHeight="125%" anchor="middle" family="微软雅黑" size="13px" weight="700" font-style="" opacity="1" y="5.375" transform="rotate(0)"><tspan id="SvgjsTspan2062" dy="16" x="45.5"><tspan id="SvgjsTspan2063" style="text-decoration:;">method</tspan></tspan></text></g><g id="SvgjsG2064"><text id="SvgjsText2065" font-family="微软雅黑" text-anchor="start" font-size="13px" width="71px" fill="#323232" font-weight="400" align="middle" lineHeight="125%" anchor="start" family="微软雅黑" size="13px" weight="400" font-style="" opacity="1" y="28.375" transform="rotate(0)"><tspan id="SvgjsTspan2066" dy="16" x="10"><tspan id="SvgjsTspan2067" style="text-decoration:;">methodId</tspan></tspan><tspan id="SvgjsTspan2068" dy="16" x="10"><tspan id="SvgjsTspan2069" style="text-decoration:;">name</tspan></tspan><tspan id="SvgjsTspan2070" dy="16" x="10"><tspan id="SvgjsTspan2071" style="text-decoration:;">description</tspan></tspan></text></g></g><g id="SvgjsG2072" transform="translate(25,265)"><path id="SvgjsPath2073" d="M 0 4Q 0 0 4 0L 93 0Q 97 0 97 4L 97 74Q 97 78 93 78L 4 78Q 0 78 0 74Z" stroke="rgba(50,50,50,1)" stroke-width="2" fill-opacity="1" fill="#ffffff"></path><path id="SvgjsPath2074" d="M 0 30L 97 30" stroke="rgba(50,50,50,1)" stroke-width="2" fill="none"></path><path id="SvgjsPath2075" d="M 0 0L 97 0L 97 78L 0 78Z" stroke="none" fill="none"></path><g id="SvgjsG2076"><text id="SvgjsText2077" font-family="微软雅黑" text-anchor="middle" font-size="13px" width="77px" fill="#323232" font-weight="700" align="middle" lineHeight="125%" anchor="middle" family="微软雅黑" size="13px" weight="700" font-style="" opacity="1" y="5.375" transform="rotate(0)"><tspan id="SvgjsTspan2078" dy="16" x="48.5"><tspan id="SvgjsTspan2079" style="text-decoration:;">author</tspan></tspan></text></g><g id="SvgjsG2080"><text id="SvgjsText2081" font-family="微软雅黑" text-anchor="start" font-size="13px" width="77px" fill="#323232" font-weight="400" align="middle" lineHeight="125%" anchor="start" family="微软雅黑" size="13px" weight="400" font-style="" opacity="1" y="28.375" transform="rotate(0)"><tspan id="SvgjsTspan2082" dy="16" x="10"><tspan id="SvgjsTspan2083" style="text-decoration:;">authorId </tspan></tspan><tspan id="SvgjsTspan2084" dy="16" x="10"><tspan id="SvgjsTspan2085" style="text-decoration:;">name</tspan></tspan><tspan id="SvgjsTspan2086" dy="16" x="10"><tspan id="SvgjsTspan2087" style="text-decoration:;">inst</tspan></tspan></text></g></g><g id="SvgjsG2088" transform="translate(314,157)"><path id="SvgjsPath2089" d="M 0 26L 62 0L 124 26L 62 52L 0 26Z" stroke="rgba(50,50,50,1)" stroke-width="2" fill-opacity="1" fill="#ffffff"></path><g id="SvgjsG2090"><text id="SvgjsText2091" font-family="微软雅黑" text-anchor="middle" font-size="13px" width="104px" fill="#323232" font-weight="400" align="middle" lineHeight="125%" anchor="middle" family="微软雅黑" size="13px" weight="400" font-style="" opacity="1" y="16.375" transform="rotate(0)"><tspan id="SvgjsTspan2092" dy="16" x="62"><tspan id="SvgjsTspan2093" style="text-decoration:;">code_of_paper</tspan></tspan></text></g></g><g id="SvgjsG2094"><path id="SvgjsPath2095" d="M376 249L376 229L376 229L376 209" stroke="#323232" stroke-width="2" fill="none"></path><rect id="SvgjsRect2096" width="8" height="16" x="372" y="221" fill="#ffffff"></rect><text id="SvgjsText2097" font-family="微软雅黑" text-anchor="middle" font-size="13px" width="8px" fill="#323232" font-weight="400" align="top" lineHeight="16px" anchor="middle" family="微软雅黑" size="13px" weight="400" font-style="" opacity="1" y="219.375" transform="rotate(0)"><tspan id="SvgjsTspan2098" dy="16" x="376"><tspan id="SvgjsTspan2099" style="text-decoration:;">1</tspan></tspan></text></g><g id="SvgjsG2100"><path id="SvgjsPath2101" d="M376 157L376 138L376 138L376 119" stroke="#323232" stroke-width="2" fill="none"></path><rect id="SvgjsRect2102" width="13" height="16" x="369.5" y="130" fill="#ffffff"></rect><text id="SvgjsText2103" font-family="微软雅黑" text-anchor="middle" font-size="13px" width="13px" fill="#323232" font-weight="400" align="top" lineHeight="16px" anchor="middle" family="微软雅黑" size="13px" weight="400" font-style="" opacity="1" y="128.375" transform="rotate(0)"><tspan id="SvgjsTspan2104" dy="16" x="376"><tspan id="SvgjsTspan2105" style="text-decoration:;">M</tspan></tspan></text></g><g id="SvgjsG2106" transform="translate(303,400.5555555555556)"><path id="SvgjsPath2107" d="M 0 26L 73 0L 146 26L 73 52L 0 26Z" stroke="rgba(50,50,50,1)" stroke-width="2" fill-opacity="1" fill="#ffffff"></path><g id="SvgjsG2108"><text id="SvgjsText2109" font-family="微软雅黑" text-anchor="middle" font-size="13px" width="126px" fill="#323232" font-weight="400" align="middle" lineHeight="125%" anchor="middle" family="微软雅黑" size="13px" weight="400" font-style="" opacity="1" y="16.375" transform="rotate(0)"><tspan id="SvgjsTspan2110" dy="16" x="73"><tspan id="SvgjsTspan2111" style="text-decoration:;">PaperBench</tspan></tspan></text></g></g><g id="SvgjsG2112"><path id="SvgjsPath2113" d="M376 359L376 379.7777777777778L376 379.7777777777778L376 400.5555555555556" stroke="#323232" stroke-width="2" fill="none"></path><rect id="SvgjsRect2114" width="11" height="16" x="370.5" y="371.77777777777777" fill="#ffffff"></rect><text id="SvgjsText2115" font-family="微软雅黑" text-anchor="middle" font-size="13px" width="11px" fill="#323232" font-weight="400" align="top" lineHeight="16px" anchor="middle" family="微软雅黑" size="13px" weight="400" font-style="" opacity="1" y="370.15277777777777" transform="rotate(0)"><tspan id="SvgjsTspan2116" dy="16" x="376"><tspan id="SvgjsTspan2117" style="text-decoration:;">N</tspan></tspan></text></g><g id="SvgjsG2118"><path id="SvgjsPath2119" d="M376 452.5555555555556L376 465.7777777777778L376 465.7777777777778L376 479" stroke="#323232" stroke-width="2" fill="none"></path><rect id="SvgjsRect2120" width="13" height="16" x="369.5" y="457.7777777777778" fill="#ffffff"></rect><text id="SvgjsText2121" font-family="微软雅黑" text-anchor="middle" font-size="13px" width="13px" fill="#323232" font-weight="400" align="top" lineHeight="16px" anchor="middle" family="微软雅黑" size="13px" weight="400" font-style="" opacity="1" y="456.1527777777778" transform="rotate(0)"><tspan id="SvgjsTspan2122" dy="16" x="376"><tspan id="SvgjsTspan2123" style="text-decoration:;">M</tspan></tspan></text></g><g id="SvgjsG2124" transform="translate(158,278)"><path id="SvgjsPath2125" d="M 0 26L 55.5 0L 111 26L 55.5 52L 0 26Z" stroke="rgba(50,50,50,1)" stroke-width="2" fill-opacity="1" fill="#ffffff"></path><g id="SvgjsG2126"><text id="SvgjsText2127" font-family="微软雅黑" text-anchor="middle" font-size="13px" width="91px" fill="#323232" font-weight="400" align="middle" lineHeight="125%" anchor="middle" family="微软雅黑" size="13px" weight="400" font-style="" opacity="1" y="16.375" transform="rotate(0)"><tspan id="SvgjsTspan2128" dy="16" x="55.5"><tspan id="SvgjsTspan2129" style="text-decoration:;">PaperAuthor</tspan></tspan></text></g></g><g id="SvgjsG2130"><path id="SvgjsPath2131" d="M309 304L289 304L289 304L269 304" stroke="#323232" stroke-width="2" fill="none"></path><rect id="SvgjsRect2132" width="11" height="16" x="283.5" y="296" fill="#ffffff"></rect><text id="SvgjsText2133" font-family="微软雅黑" text-anchor="middle" font-size="13px" width="11px" fill="#323232" font-weight="400" align="top" lineHeight="16px" anchor="middle" family="微软雅黑" size="13px" weight="400" font-style="" opacity="1" y="294.375" transform="rotate(0)"><tspan id="SvgjsTspan2134" dy="16" x="289"><tspan id="SvgjsTspan2135" style="text-decoration:;">N</tspan></tspan></text></g><g id="SvgjsG2136"><path id="SvgjsPath2137" d="M158 304L140 304L140 304L122 304" stroke="#323232" stroke-width="2" fill="none"></path><rect id="SvgjsRect2138" width="13" height="16" x="133.5" y="296" fill="#ffffff"></rect><text id="SvgjsText2139" font-family="微软雅黑" text-anchor="middle" font-size="13px" width="13px" fill="#323232" font-weight="400" align="top" lineHeight="16px" anchor="middle" family="微软雅黑" size="13px" weight="400" font-style="" opacity="1" y="294.375" transform="rotate(0)"><tspan id="SvgjsTspan2140" dy="16" x="140"><tspan id="SvgjsTspan2141" style="text-decoration:;">M</tspan></tspan></text></g><g id="SvgjsG2142" transform="translate(495,276)"><path id="SvgjsPath2143" d="M 0 28L 63 0L 126 28L 63 56L 0 28Z" stroke="rgba(50,50,50,1)" stroke-width="2" fill-opacity="1" fill="#ffffff"></path><g id="SvgjsG2144"><text id="SvgjsText2145" font-family="微软雅黑" text-anchor="middle" font-size="13px" width="106px" fill="#323232" font-weight="400" align="middle" lineHeight="125%" anchor="middle" family="微软雅黑" size="13px" weight="400" font-style="" opacity="1" y="18.375" transform="rotate(0)"><tspan id="SvgjsTspan2146" dy="16" x="63"><tspan id="SvgjsTspan2147" style="text-decoration:;">PaperMethod</tspan></tspan></text></g></g><g id="SvgjsG2148"><path id="SvgjsPath2149" d="M443 304L469 304L469 304L495 304" stroke="#323232" stroke-width="2" fill="none"></path><rect id="SvgjsRect2150" width="11" height="16" x="463.5" y="296" fill="#ffffff"></rect><text id="SvgjsText2151" font-family="微软雅黑" text-anchor="middle" font-size="13px" width="11px" fill="#323232" font-weight="400" align="top" lineHeight="16px" anchor="middle" family="微软雅黑" size="13px" weight="400" font-style="" opacity="1" y="294.375" transform="rotate(0)"><tspan id="SvgjsTspan2152" dy="16" x="469"><tspan id="SvgjsTspan2153" style="text-decoration:;">N</tspan></tspan></text></g><g id="SvgjsG2154"><path id="SvgjsPath2155" d="M621 304L646.5 304L646.5 304L672 304" stroke="#323232" stroke-width="2" fill="none"></path><rect id="SvgjsRect2156" width="13" height="16" x="640" y="296" fill="#ffffff"></rect><text id="SvgjsText2157" font-family="微软雅黑" text-anchor="middle" font-size="13px" width="13px" fill="#323232" font-weight="400" align="top" lineHeight="16px" anchor="middle" family="微软雅黑" size="13px" weight="400" font-style="" opacity="1" y="294.375" transform="rotate(0)"><tspan id="SvgjsTspan2158" dy="16" x="646.5"><tspan id="SvgjsTspan2159" style="text-decoration:;">M</tspan></tspan></text></g><g id="SvgjsG2160" transform="translate(509.20987654321016,408)"><path id="SvgjsPath2161" d="M 0 0L 78 0L 78 37L 0 37Z" stroke="rgba(50,50,50,1)" stroke-width="2" fill-opacity="1" fill="#ffffff"></path><g id="SvgjsG2162"><text id="SvgjsText2163" font-family="微软雅黑" text-anchor="middle" font-size="13px" width="58px" fill="#323232" font-weight="400" align="middle" lineHeight="125%" anchor="middle" family="微软雅黑" size="13px" weight="400" font-style="" opacity="1" y="8.875" transform="rotate(0)"><tspan id="SvgjsTspan2164" dy="16" x="39"><tspan id="SvgjsTspan2165" style="text-decoration:;">value</tspan></tspan></text></g></g><g id="SvgjsG2166"><path id="SvgjsPath2167" d="M449 426.5555555555556L479.1049382716051 426.5555555555556L479.1049382716051 426.5L509.20987654321016 426.5" stroke-dasharray="8,5" stroke="#323232" stroke-width="2" fill="none"></path></g><g id="SvgjsG2168" transform="translate(293,599.7777777777778)"><path id="SvgjsPath2169" d="M 0 26L 83 0L 166 26L 83 52L 0 26Z" stroke="rgba(50,50,50,1)" stroke-width="2" fill-opacity="1" fill="#ffffff"></path><g id="SvgjsG2170"><text id="SvgjsText2171" font-family="微软雅黑" text-anchor="middle" font-size="13px" width="146px" fill="#323232" font-weight="400" align="middle" lineHeight="125%" anchor="middle" family="微软雅黑" size="13px" weight="400" font-style="" opacity="1" y="16.375" transform="rotate(0)"><tspan id="SvgjsTspan2172" dy="16" x="83"><tspan id="SvgjsTspan2173" style="text-decoration:;">dataset_of_benchmark</tspan></tspan></text></g></g><g id="SvgjsG2174"><path id="SvgjsPath2175" d="M376 557L376 578.3888888888889L376 578.3888888888889L376 599.7777777777778" stroke="#323232" stroke-width="2" fill="none"></path><rect id="SvgjsRect2176" width="13" height="16" x="369.5" y="570.3888888888889" fill="#ffffff"></rect><text id="SvgjsText2177" font-family="微软雅黑" text-anchor="middle" font-size="13px" width="13px" fill="#323232" font-weight="400" align="top" lineHeight="16px" anchor="middle" family="微软雅黑" size="13px" weight="400" font-style="" opacity="1" y="568.7638888888889" transform="rotate(0)"><tspan id="SvgjsTspan2178" dy="16" x="376"><tspan id="SvgjsTspan2179" style="text-decoration:;">M</tspan></tspan></text></g><g id="SvgjsG2180"><path id="SvgjsPath2181" d="M376 651.7777777777778L376 668.7777777777778L376 668.7777777777778L376 685.7777777777778" stroke="#323232" stroke-width="2" fill="none"></path><rect id="SvgjsRect2182" width="8" height="16" x="372" y="660.7777777777778" fill="#ffffff"></rect><text id="SvgjsText2183" font-family="微软雅黑" text-anchor="middle" font-size="13px" width="8px" fill="#323232" font-weight="400" align="top" lineHeight="16px" anchor="middle" family="微软雅黑" size="13px" weight="400" font-style="" opacity="1" y="659.1527777777778" transform="rotate(0)"><tspan id="SvgjsTspan2184" dy="16" x="376"><tspan id="SvgjsTspan2185" style="text-decoration:;">1</tspan></tspan></text></g><g id="SvgjsG2186" transform="translate(483.1111111111114,492)"><path id="SvgjsPath2187" d="M 0 26L 77 0L 154 26L 77 52L 0 26Z" stroke="rgba(50,50,50,1)" stroke-width="2" fill-opacity="1" fill="#ffffff"></path><g id="SvgjsG2188"><text id="SvgjsText2189" font-family="微软雅黑" text-anchor="middle" font-size="13px" width="134px" fill="#323232" font-weight="400" align="middle" lineHeight="125%" anchor="middle" family="微软雅黑" size="13px" weight="400" font-style="" opacity="1" y="16.375" transform="rotate(0)"><tspan id="SvgjsTspan2190" dy="16" x="77"><tspan id="SvgjsTspan2191" style="text-decoration:;">task_of_benchmark</tspan></tspan></text></g></g><g id="SvgjsG2192"><path id="SvgjsPath2193" d="M434 519.3888888888889L458.55555555555566 519.3888888888889L458.55555555555566 518L483.1111111111114 518" stroke="#323232" stroke-width="2" fill="none"></path><rect id="SvgjsRect2194" width="13" height="16" x="452.05555555555566" y="510.69444444444434" fill="#ffffff"></rect><text id="SvgjsText2195" font-family="微软雅黑" text-anchor="middle" font-size="13px" width="13px" fill="#323232" font-weight="400" align="top" lineHeight="16px" anchor="middle" family="微软雅黑" size="13px" weight="400" font-style="" opacity="1" y="509.06944444444434" transform="rotate(0)"><tspan id="SvgjsTspan2196" dy="16" x="458.55555555555566"><tspan id="SvgjsTspan2197" style="text-decoration:;">M</tspan></tspan></text></g><g id="SvgjsG2198"><path id="SvgjsPath2199" d="M637.1111111111114 518L657.8333333333335 518L657.8333333333335 519L678.5555555555554 519" stroke="#323232" stroke-width="2" fill="none"></path><rect id="SvgjsRect2200" width="8" height="16" x="653.8333333333335" y="510.5" fill="#ffffff"></rect><text id="SvgjsText2201" font-family="微软雅黑" text-anchor="middle" font-size="13px" width="8px" fill="#323232" font-weight="400" align="top" lineHeight="16px" anchor="middle" family="微软雅黑" size="13px" weight="400" font-style="" opacity="1" y="508.875" transform="rotate(0)"><tspan id="SvgjsTspan2202" dy="16" x="657.8333333333335"><tspan id="SvgjsTspan2203" style="text-decoration:;">1</tspan></tspan></text></g><g id="SvgjsG2204"><path id="SvgjsPath2205" d="M213.5 330L213.5 354.5L214 354.5L214 379" stroke-dasharray="8,5" stroke="#323232" stroke-width="2" fill="none"></path></g><g id="SvgjsG2206" transform="translate(175,379)"><path id="SvgjsPath2207" d="M 0 0L 78 0L 78 37L 0 37Z" stroke="rgba(50,50,50,1)" stroke-width="2" fill-opacity="1" fill="#ffffff"></path><g id="SvgjsG2208"><text id="SvgjsText2209" font-family="微软雅黑" text-anchor="middle" font-size="13px" width="58px" fill="#323232" font-weight="400" align="middle" lineHeight="125%" anchor="middle" family="微软雅黑" size="13px" weight="400" font-style="" opacity="1" y="0.875" transform="rotate(0)"><tspan id="SvgjsTspan2210" dy="16" x="39"><tspan id="SvgjsTspan2211" style="text-decoration:;">order</tspan></tspan><tspan id="SvgjsTspan2212" dy="16" x="39"><tspan id="SvgjsTspan2213" style="text-decoration:;">iscorr</tspan></tspan></text></g></g></svg>